<?xml version="1.0" encoding="iso-8859-1"?>
<!-- Generator: Adobe Illustrator 19.0.0, SVG Export Plug-In . SVG Version: 6.00 Build 0)  -->
<svg version="1.1" id="Layer_1" xmlns="http://www.w3.org/2000/svg" xmlns:xlink="http://www.w3.org/1999/xlink" x="0px" y="0px"
	 viewBox="0 0 158 158" style="enable-background:new 0 0 158 158;" xml:space="preserve">
<circle style="fill:#CCCCCC;" cx="78.088" cy="78.911" r="76.086"/>
<g>
	<path style="fill:#242628;" d="M47.649,76.864h59.996c5.664,0,10.256-2.492,10.256-5.566V48.809c0-3.074,4.592-5.566,10.256-5.566
		h0c5.664,0,10.256,2.492,10.256,5.566v66.63c0,3.074-4.592,5.566-10.256,5.566h0c-5.664,0-10.256-2.492-10.256-5.566V92.728
		c0-3.074-4.592-5.566-10.256-5.566H47.649c-5.664,0-10.256,2.492-10.256,5.566v22.711c0,3.074-4.592,5.566-10.256,5.566h0
		c-5.664,0-10.256-2.492-10.256-5.566v-66.63c0-3.074,4.592-5.566,10.256-5.566h0c5.664,0,10.256,2.492,10.256,5.566v22.488
		C37.393,74.372,41.985,76.864,47.649,76.864z"/>
</g>
<g>
	<path style="fill:#EF8E33;" d="M49.572,103.403l23.265-82.788c0.552-1.966,1.905-3.258,3.411-3.258h5.192
		c1.506,0,2.859,1.292,3.411,3.258l23.265,82.788c0.949,3.377-0.825,7.035-3.411,7.035h-2.857c-1.526,0-2.892-1.326-3.431-3.33
		l-4.471-16.63c-0.539-2.004-1.905-3.33-3.431-3.33H65.262c-1.518,0-2.88,1.313-3.424,3.303l-4.56,16.683
		c-0.544,1.99-1.905,3.303-3.424,3.303h-0.871C50.396,110.438,48.623,106.78,49.572,103.403z M71.105,76.412h13.562
		c2.573,0,4.345-3.621,3.423-6.991l-6.814-24.907c-1.207-4.41-5.655-4.4-6.851,0.016l-6.747,24.907
		C66.765,72.804,68.538,76.412,71.105,76.412z"/>
</g>
</svg>
