<?xml version="1.0" encoding="iso-8859-1"?>
<!-- Generator: Adobe Illustrator 19.0.0, SVG Export Plug-In . SVG Version: 6.00 Build 0)  -->
<svg version="1.1" xmlns="http://www.w3.org/2000/svg" xmlns:xlink="http://www.w3.org/1999/xlink" x="0px" y="0px"
	 viewBox="0 0 612 469" style="enable-background:new 0 0 612 469;" xml:space="preserve">
<g id="Resume">
	<g id="XMLID_12_">
		<rect id="XMLID_25_" x="81.962" y="207" style="fill:#CCCCCC;" width="451.018" height="262"/>
		<g id="XMLID_11_">
			<line id="XMLID_31_" x1="137.471" y1="442.52" x2="473.467" y2="442.52"/>
			<g id="XMLID_24_">
				<path id="XMLID_30_" style="fill:#231111;" d="M137.471,445.02c37.957,0,75.915,0,113.872,0c60.137,0,120.274,0,180.41,0
					c13.905,0,27.809,0,41.714,0c3.217,0,3.223-5,0-5c-37.957,0-75.915,0-113.872,0c-60.137,0-120.274,0-180.41,0
					c-13.905,0-27.809,0-41.714,0C134.254,440.02,134.249,445.02,137.471,445.02L137.471,445.02z"/>
			</g>
		</g>
		<g id="XMLID_26_">
			<line id="XMLID_86_" x1="138" y1="381.069" x2="473.996" y2="381.069"/>
			<g id="XMLID_81_">
				<path id="XMLID_85_" style="fill:#231111;" d="M138,383.569c37.957,0,75.915,0,113.872,0c60.137,0,120.274,0,180.41,0
					c13.905,0,27.809,0,41.714,0c3.217,0,3.223-5,0-5c-37.957,0-75.915,0-113.872,0c-60.137,0-120.274,0-180.41,0
					c-13.905,0-27.809,0-41.714,0C134.783,378.569,134.777,383.569,138,383.569L138,383.569z"/>
			</g>
		</g>
		<g id="XMLID_55_">
			<line id="XMLID_121_" x1="137.995" y1="412" x2="473.991" y2="412"/>
			<g id="XMLID_88_">
				<path id="XMLID_98_" style="fill:#231111;" d="M137.995,414.5c37.957,0,75.915,0,113.872,0c60.137,0,120.274,0,180.41,0
					c13.905,0,27.809,0,41.714,0c3.217,0,3.223-5,0-5c-37.957,0-75.915,0-113.872,0c-60.137,0-120.274,0-180.41,0
					c-13.905,0-27.809,0-41.714,0C134.778,409.5,134.773,414.5,137.995,414.5L137.995,414.5z"/>
			</g>
		</g>
		<g id="XMLID_42_">
			<line id="XMLID_53_" x1="138.009" y1="311.548" x2="226.98" y2="311.548"/>
			<g id="XMLID_48_">
				<path id="XMLID_52_" style="fill:#231111;" d="M138.009,314.048c25.977,0,51.954,0,77.932,0c3.68,0,7.36,0,11.04,0
					c3.217,0,3.223-5,0-5c-25.977,0-51.954,0-77.932,0c-3.68,0-7.36,0-11.04,0C134.792,309.048,134.786,314.048,138.009,314.048
					L138.009,314.048z"/>
			</g>
		</g>
		<g id="XMLID_33_">
			<line id="XMLID_45_" x1="138.029" y1="286.542" x2="227" y2="286.542"/>
			<g id="XMLID_37_">
				<path id="XMLID_44_" style="fill:#231111;" d="M138.029,289.042c25.977,0,51.954,0,77.932,0c3.68,0,7.36,0,11.04,0
					c3.217,0,3.223-5,0-5c-25.977,0-51.954,0-77.932,0c-3.68,0-7.36,0-11.04,0C134.812,284.042,134.806,289.042,138.029,289.042
					L138.029,289.042z"/>
			</g>
		</g>
	</g>
</g>
<g id="Desktop">
	
		<image style="overflow:visible;" width="1280" height="800" id="XMLID_18_" xlink:href="../../Current Design Work/Web/Mario/Super.jpg"  transform="matrix(0.485 0 0 0.485 -1492.7648 92.5416)">
	</image>
	
		<image style="overflow:visible;" width="600" height="225" id="XMLID_14_" xlink:href="../../Current Design Work/Web/Mario/MarioTitle.png"  transform="matrix(0.2906 0 0 0.2906 -1230.4114 242.2128)">
	</image>
	<g id="XMLID_107_">
		<path id="XMLID_125_" style="fill:#CCCCCC;" d="M-192.667,207c-144.197,0-288.394,0-432.591,0
			c-4.913,0-14.739,10.844-14.739,16.266c0,81.911,0,163.823,0,245.734c153.556,0,307.111,0,460.667,0V219
			C-179.331,219-188.222,207-192.667,207z"/>
		<rect id="XMLID_166_" x="-626" y="221.667" style="fill:#8C8EC5;" width="431.667" height="248.333"/>
		<rect id="XMLID_13_" x="-566.456" y="331.134" style="fill:#D43E27;" width="313.582" height="46.467"/>
		<g id="XMLID_62_">
			<line id="XMLID_78_" x1="-527.442" y1="354.974" x2="-297.909" y2="354.974"/>
			<g id="XMLID_73_">
				<path id="XMLID_77_" style="fill:#CCCCCC;" d="M-527.442,359.974c25.977,0,51.955,0,77.932,0c41.031,0,82.061,0,123.092,0
					c9.503,0,19.006,0,28.509,0c6.435,0,6.445-10,0-10c-25.977,0-51.955,0-77.932,0c-41.031,0-82.061,0-123.092,0
					c-9.503,0-19.006,0-28.509,0C-533.877,349.974-533.887,359.974-527.442,359.974L-527.442,359.974z"/>
			</g>
		</g>
		<ellipse id="XMLID_32_" style="fill:#FFFFFF;" cx="-278.813" cy="279.084" rx="51.873" ry="20.999"/>
		<ellipse id="XMLID_41_" style="fill:#FFFFFF;" cx="-261.7" cy="274.901" rx="22.582" ry="35.397"/>
		<ellipse id="XMLID_54_" style="fill:#FFFFFF;" cx="-238.751" cy="268.271" rx="17.596" ry="18.271"/>
		<ellipse id="XMLID_56_" style="fill:#FFFFFF;" cx="-296.687" cy="277.022" rx="17.596" ry="23.062"/>
		<rect id="XMLID_47_" x="-626" y="441.138" style="fill:#DC6E27;" width="431.667" height="28.465"/>
		<path id="XMLID_57_" style="fill:#109347;" d="M-606,440c4.668-24.579,21.197-38.108,32.214-35.925
			c8.23,1.631,17.622,12.218,17.622,22.297c0,4.588,0,9.176,0,13.765h-39.2C-598.909,440.091-602.455,440.046-606,440z"/>
		<path id="XMLID_60_" style="fill:#109347;" d="M-467.014,440.077c-4.668-24.579-21.197-38.108-32.214-35.925
			c-8.23,1.631-17.622,12.218-17.622,22.297c0,4.588,0,9.176,0,13.765h39.2C-474.105,440.168-470.56,440.123-467.014,440.077z"/>
		<path id="XMLID_59_" style="fill:#109347;" d="M-556.094,426.372c-0.634-13.251,10.55-23.347,21.578-22.297
			c9.832,0.935,18.35,10.616,17.622,22.297c0,4.588,0,9.176,0,13.765h-39.2V426.372z"/>
	</g>
</g>
<g id="Color_Palatte">
	<g id="XMLID_10_">
		<g id="XMLID_2_">
			<defs>
				<rect id="XMLID_1_" x="-2134.441" y="-312.514" width="1262.476" height="227.658"/>
			</defs>
			<clipPath id="XMLID_127_">
				<use xlink:href="#XMLID_1_"  style="overflow:visible;"/>
			</clipPath>
			<g style="clip-path:url(#XMLID_127_);">
				
					<image style="overflow:visible;" width="1600" height="894" id="XMLID_236_" xlink:href="port_palette_2.PNG"  transform="matrix(0.8891 0 0 0.358 -2204.3645 -362.9821)">
				</image>
			</g>
		</g>
		<rect id="XMLID_3_" x="-2104.425" y="-357.66" style="fill:none;" width="1318.49" height="72"/>
		
			<text id="XMLID_4_" transform="matrix(1 0 0 1 -2104.4253 -333.419)" style="fill:#E2E6DD; font-family:'CalisMTBol'; font-size:34px;">#221111               #FFFFFF              #CCCCCC             #999999               #BB9911</text>
		<g id="XMLID_7_">
			<defs>
				<rect id="XMLID_6_" x="-2134.441" y="-780.117" width="1081.446" height="230"/>
			</defs>
			<clipPath id="XMLID_128_">
				<use xlink:href="#XMLID_6_"  style="overflow:visible;"/>
			</clipPath>
			<g id="XMLID_63_" style="clip-path:url(#XMLID_128_);">
				
					<image style="overflow:visible;" width="1600" height="900" id="XMLID_34_" xlink:href="port_palette_1.PNG"  transform="matrix(2.222 0 0 2.1872 -3173.6697 -1168.4584)">
				</image>
			</g>
		</g>
		<rect id="XMLID_16_" x="-2061.062" y="-834.922" style="fill:none;" width="1035.452" height="54.806"/>
		
			<text id="XMLID_5_" transform="matrix(1 0 0 1 -2061.062 -810.6801)" style="fill:#E2E6DD; font-family:'CalisMTBol'; font-size:34px;">#535253                 #979796               #060605              #FFFFFF </text>
	</g>
</g>
</svg>
